<svg width="73" height="73" viewBox="0 0 73 73" fill="none" xmlns="http://www.w3.org/2000/svg">
<path d="M12.8667 26.5993C12.8667 24.6654 13.635 22.8107 15.0024 21.4433C16.3699 20.0758 18.2245 19.3076 20.1584 19.3076H52.2418C54.1756 19.3076 56.0303 20.0758 57.3977 21.4433C58.7652 22.8107 59.5334 24.6654 59.5334 26.5993V47.0159C59.5334 48.9498 58.7652 50.8045 57.3977 52.1719C56.0303 53.5394 54.1756 54.3076 52.2418 54.3076H20.1584C18.2245 54.3076 16.3699 53.5394 15.0024 52.1719C13.635 50.8045 12.8667 48.9498 12.8667 47.0159V26.5993ZM20.1584 22.2243C18.9981 22.2243 17.8853 22.6852 17.0648 23.5057C16.2444 24.3261 15.7834 25.4389 15.7834 26.5993V30.3909H56.6168V26.5993C56.6168 25.4389 56.1558 24.3261 55.3353 23.5057C54.5149 22.6852 53.4021 22.2243 52.2418 22.2243H20.1584ZM15.7834 47.0159C15.7834 48.1763 16.2444 49.2891 17.0648 50.1095C17.8853 50.93 18.9981 51.3909 20.1584 51.3909H52.2418C53.4021 51.3909 54.5149 50.93 55.3353 50.1095C56.1558 49.2891 56.6168 48.1763 56.6168 47.0159V33.3076H15.7834V47.0159ZM44.6584 43.2243C44.2716 43.2243 43.9007 43.3779 43.6272 43.6514C43.3537 43.9249 43.2001 44.2958 43.2001 44.6826C43.2001 45.0694 43.3537 45.4403 43.6272 45.7138C43.9007 45.9873 44.2716 46.1409 44.6584 46.1409H51.0751C51.4619 46.1409 51.8328 45.9873 52.1063 45.7138C52.3798 45.4403 52.5334 45.0694 52.5334 44.6826C52.5334 44.2958 52.3798 43.9249 52.1063 43.6514C51.8328 43.3779 51.4619 43.2243 51.0751 43.2243H44.6584Z" fill="white"/>
</svg>
