<svg width="50" height="50" viewBox="0 0 50 50" fill="none" xmlns="http://www.w3.org/2000/svg">
<path d="M47.964 22.2404L37.62 32.5944V45.2804C37.62 47.6404 35.7 49.5604 33.34 49.5604H4.81098C2.45098 49.5604 0.531982 47.6404 0.531982 45.2804V5.14035C0.531982 2.78035 2.45198 0.860352 4.81198 0.860352H29.306C30.449 0.860352 31.524 1.30435 32.332 2.11335L36.366 6.14935C36.7647 6.54578 37.0808 7.01734 37.2961 7.53675C37.5113 8.05616 37.6214 8.61311 37.62 9.17535V20.4824L41.911 16.1864C42.3084 15.789 42.7803 15.4738 43.2995 15.2587C43.8188 15.0437 44.3753 14.933 44.9373 14.9331C45.4994 14.9331 46.0559 15.0439 46.5751 15.259C47.0943 15.4741 47.5661 15.7894 47.9635 16.1869C48.3609 16.5843 48.6761 17.0561 48.8911 17.5754C49.1061 18.0946 49.2168 18.6512 49.2167 19.2132C49.2167 19.7752 49.106 20.3317 48.8908 20.851C48.6757 21.3702 48.3604 21.842 47.963 22.2394L47.964 22.2404ZM29.06 9.42035H34.766C34.766 9.11535 34.801 8.62035 34.348 8.16635L30.314 4.13135C29.849 3.66635 29.33 3.71335 29.06 3.71335V9.42035ZM34.766 45.2814V35.4504L34.593 35.6234C34.4365 35.7803 34.2454 35.8985 34.035 35.9684L27.983 37.9864C27.7316 38.0707 27.4616 38.0832 27.2035 38.0225C26.9454 37.9618 26.7093 37.8303 26.5218 37.6427C26.3344 37.4551 26.203 37.219 26.1424 36.9608C26.0818 36.7027 26.0945 36.4327 26.179 36.1814L28.196 30.1284C28.266 29.9184 28.384 29.7264 28.541 29.5704L30.557 27.5534L34.766 23.3404V12.2744H27.634C27.2555 12.2744 26.8926 12.124 26.6249 11.8564C26.3573 11.5888 26.207 11.2258 26.207 10.8474V3.71335H4.81098C4.02498 3.71335 3.38498 4.35335 3.38498 5.14035V45.2804C3.38498 46.0674 4.02498 46.7074 4.81098 46.7074H33.341C34.127 46.7074 34.767 46.0674 34.767 45.2804L34.766 45.2814ZM30.796 31.3494L29.788 34.3754L32.814 33.3674L33.584 32.5954L31.567 30.5784L30.796 31.3494ZM42.458 23.7134L40.441 21.6954L33.584 28.5604L35.601 30.5784L42.458 23.7134ZM45.946 18.2034C45.6782 17.936 45.3153 17.7858 44.937 17.7858C44.5586 17.7858 44.1957 17.936 43.928 18.2034L42.458 19.6774L44.475 21.6944L45.945 20.2224C46.505 19.6624 46.502 18.7604 45.945 18.2044L45.946 18.2034ZM29.06 16.5554C29.06 17.3444 28.421 17.9824 27.634 17.9824H7.66498C7.28652 17.9824 6.92356 17.832 6.65594 17.5644C6.38833 17.2968 6.23798 16.9338 6.23798 16.5554C6.23798 16.1769 6.38833 15.8139 6.65594 15.5463C6.92356 15.2787 7.28652 15.1284 7.66498 15.1284H27.635C28.422 15.1284 29.06 15.7684 29.06 16.5554ZM23.354 22.2634C23.354 23.0504 22.716 23.6904 21.928 23.6904H7.66398C7.28552 23.6904 6.92256 23.54 6.65494 23.2724C6.38733 23.0048 6.23698 22.6418 6.23698 22.2634C6.23698 21.8849 6.38733 21.5219 6.65494 21.2543C6.92256 20.9867 7.28552 20.8364 7.66398 20.8364H21.93C22.718 20.8364 23.356 21.4744 23.356 22.2634H23.354ZM23.354 27.9704C23.354 28.7584 22.716 29.3974 21.928 29.3974H7.66398C7.28552 29.3974 6.92256 29.247 6.65494 28.9794C6.38733 28.7118 6.23698 28.3488 6.23698 27.9704C6.23698 27.5919 6.38733 27.2289 6.65494 26.9613C6.92256 26.6937 7.28552 26.5434 7.66398 26.5434H21.93C22.718 26.5434 23.356 27.1824 23.356 27.9704H23.354ZM23.354 33.6774C23.354 34.4654 22.716 35.1044 21.928 35.1044H7.66398C7.28565 35.1044 6.92282 34.9541 6.65529 34.6865C6.38777 34.419 6.23748 34.0562 6.23748 33.6779C6.23748 33.2995 6.38777 32.9367 6.65529 32.6692C6.92282 32.4016 7.28565 32.2514 7.66398 32.2514H21.93C22.718 32.2514 23.356 32.8894 23.356 33.6774H23.354ZM29.06 42.4284C29.06 43.2164 28.421 43.8564 27.634 43.8564H19.074C18.6955 43.8564 18.3326 43.706 18.0649 43.4384C17.7973 43.1708 17.647 42.8078 17.647 42.4294C17.647 42.0509 17.7973 41.6879 18.0649 41.4203C18.3326 41.1527 18.6955 41.0024 19.074 41.0024H27.634C28.421 41.0024 29.06 41.6414 29.06 42.4284Z" fill="black"/>
</svg>
