<svg width="57" height="40" viewBox="0 0 57 40" fill="none" xmlns="http://www.w3.org/2000/svg">
<path d="M42.816 40.0429C39.541 40.0429 36.776 37.7999 35.968 34.7619H25.446C24.637 37.7999 21.873 40.0419 18.598 40.0419C15.322 40.0419 12.558 37.7999 11.749 34.7619H7.14C6.90669 34.7615 6.67574 34.7151 6.46035 34.6255C6.24496 34.5358 6.04935 34.4045 5.8847 34.2392C5.72005 34.0739 5.58958 33.8778 5.50075 33.6621C5.41192 33.4463 5.36647 33.2152 5.367 32.9819C5.367 31.9979 6.16 31.2019 7.139 31.2019H11.719C12.488 28.1039 15.281 25.8019 18.599 25.8019C21.917 25.8019 24.709 28.1039 25.478 31.2019H35.938C36.706 28.1039 39.499 25.8019 42.818 25.8019C46.135 25.8019 48.928 28.1039 49.696 31.2019H53.036V22.0199L50.456 18.6799H36.672C36.4388 18.6794 36.2079 18.6329 35.9927 18.5432C35.7774 18.4534 35.5819 18.3222 35.4173 18.1569C35.2528 17.9916 35.1224 17.7955 35.0337 17.5798C34.9449 17.3642 34.8995 17.1331 34.9 16.8999V4.44088H7.138C6.90469 4.44036 6.67376 4.39387 6.45842 4.30407C6.24309 4.21427 6.04755 4.08292 5.88299 3.91752C5.71843 3.75213 5.58808 3.55593 5.49937 3.34014C5.41066 3.12435 5.36534 2.89319 5.366 2.65988C5.366 1.67688 6.159 0.879883 7.138 0.879883H36.673C37.652 0.879883 38.445 1.67688 38.445 2.65988V4.43988H46.005C46.675 4.43988 47.288 4.81988 47.59 5.41988L52.906 16.0419L52.903 16.0439L56.207 20.3189C56.448 20.6309 56.579 21.0159 56.579 21.4109V32.9809C56.579 33.9649 55.786 34.7609 54.807 34.7609H49.665C48.856 37.7989 46.093 40.0429 42.816 40.0429ZM46.36 32.9229C46.36 30.9589 44.77 29.3629 42.816 29.3629C40.862 29.3629 39.272 30.9589 39.272 32.9229C39.272 34.8859 40.862 36.4829 42.816 36.4829C44.771 36.4829 46.36 34.8859 46.36 32.9229ZM22.142 32.9229C22.142 30.9589 20.552 29.3629 18.598 29.3629C16.643 29.3629 15.054 30.9589 15.054 32.9229C15.054 34.8859 16.644 36.4829 18.598 36.4829C20.552 36.4829 22.142 34.8859 22.142 32.9229ZM44.913 7.99988H38.445V15.1199H48.477L44.913 7.99988ZM14.935 23.9629C14.935 24.9449 14.142 25.7429 13.163 25.7429H5.012C4.77877 25.7424 4.54793 25.6959 4.33266 25.6062C4.11738 25.5164 3.92189 25.3852 3.75735 25.2199C3.5928 25.0546 3.46242 24.8585 3.37366 24.6428C3.28489 24.4272 3.23947 24.1961 3.24 23.9629C3.24 22.9789 4.033 22.1829 5.012 22.1829H13.163C14.142 22.1829 14.935 22.9789 14.935 23.9629ZM19.011 16.9609C19.011 17.9439 18.218 18.7409 17.239 18.7409H2.117C1.88377 18.7404 1.65293 18.6939 1.43766 18.6042C1.22238 18.5144 1.02689 18.3832 0.862347 18.2179C0.697801 18.0526 0.567423 17.8565 0.478656 17.6408C0.389889 17.4252 0.344472 17.1941 0.344998 16.9609C0.344998 15.9769 1.138 15.1799 2.117 15.1799H17.24C18.219 15.1799 19.012 15.9769 19.012 16.9599L19.011 16.9609ZM21.905 9.95888C21.905 10.9419 21.112 11.7389 20.133 11.7389H5.012C4.77877 11.7384 4.54793 11.6919 4.33266 11.6022C4.11738 11.5124 3.92189 11.3812 3.75735 11.2159C3.5928 11.0506 3.46242 10.8545 3.37366 10.6388C3.28489 10.4232 3.23947 10.1921 3.24 9.95888C3.24 8.97488 4.033 8.17888 5.012 8.17888H20.133C21.113 8.17888 21.906 8.97488 21.905 9.95888Z" fill="black"/>
</svg>
