<svg width="55" height="48" viewBox="0 0 55 48" fill="none" xmlns="http://www.w3.org/2000/svg">
<path d="M54.05 32.374V44.174C54.0513 45.0662 53.6984 45.9224 53.0687 46.5545C52.4391 47.1866 51.5842 47.5428 50.692 47.545H3.68302C2.791 47.5426 1.9364 47.1862 1.30695 46.5541C0.677507 45.9221 0.324696 45.066 0.326025 44.174V13.832C0.324431 12.9398 0.677124 12.0834 1.3066 11.4511C1.93607 10.8188 2.79083 10.4623 3.68302 10.46H22.151C23.078 10.46 23.83 11.215 23.83 12.146C23.83 13.076 23.078 13.832 22.15 13.832H3.68402V20.574H22.152C23.079 20.574 23.831 21.329 23.831 22.26C23.831 23.19 23.079 23.946 22.151 23.946H3.68402V44.174H50.693V32.374C50.693 31.444 51.445 30.688 52.372 30.688C53.298 30.688 54.05 31.443 54.05 32.374ZM17.114 32.374C17.114 33.304 16.362 34.06 15.435 34.06H8.72003C8.49901 34.0596 8.28024 34.0156 8.0762 33.9307C7.87216 33.8458 7.68684 33.7215 7.53084 33.5649C7.37484 33.4083 7.2512 33.2226 7.16699 33.0182C7.08277 32.8139 7.03963 32.595 7.04002 32.374C7.04002 31.444 7.79303 30.688 8.72003 30.688H15.435C16.362 30.688 17.115 31.443 17.115 32.374H17.114ZM54.05 7.08895V13.832C54.05 23.12 50.636 28.541 41.455 33.837C41.2007 33.9832 40.9124 34.0602 40.619 34.0602C40.3256 34.0602 40.0374 33.9832 39.783 33.837C30.603 28.527 27.188 23.107 27.188 13.832V7.08895C27.188 6.41495 27.588 5.80395 28.203 5.53795L39.954 0.479953C40.38 0.300953 40.854 0.300953 41.28 0.479953L53.032 5.53695C53.3344 5.66807 53.5918 5.88478 53.7725 6.16037C53.9532 6.43596 54.0493 6.7584 54.049 7.08795L54.05 7.08895ZM50.693 8.20195L40.618 3.86595L30.545 8.20195V13.832C30.545 21.606 33.11 25.891 40.618 30.419C48.126 25.901 50.692 21.616 50.692 13.832L50.693 8.20195ZM46.969 13.198L40.253 21.626C40.0961 21.8237 39.8964 21.9834 39.6691 22.0932C39.4417 22.203 39.1925 22.26 38.94 22.26H38.87C38.6055 22.2472 38.3477 22.1726 38.1174 22.042C37.8871 21.9113 37.6907 21.7284 37.544 21.508L34.186 16.451C33.9399 16.0787 33.8509 15.6243 33.9384 15.1868C34.0258 14.7492 34.2827 14.3639 34.653 14.115C35.0239 13.869 35.4773 13.7802 35.9135 13.8681C36.3498 13.956 36.7334 14.2135 36.98 14.584L39.068 17.719L44.346 11.091C44.625 10.7445 45.0297 10.5224 45.4718 10.4731C45.9139 10.4238 46.3576 10.5514 46.706 10.828C47.432 11.411 47.546 12.469 46.969 13.198Z" fill="black"/>
</svg>
