<svg width="73" height="73" viewBox="0 0 73 73" fill="none" xmlns="http://www.w3.org/2000/svg">
<g clip-path="url(#clip0_1_193)">
<path d="M56.8002 22.6541C47.9056 21.0254 44.2282 19.8191 36.2 16.1179C28.1717 19.8191 24.4943 21.0254 15.5997 22.6541C13.9883 48.726 34.6661 57.7287 36.2 58.3592C37.7338 57.7287 58.4116 48.726 56.8002 22.6541Z" stroke="white" stroke-width="3" stroke-linecap="round" stroke-linejoin="round"/>
<path d="M30.844 45.4096H27.802V32.0196L24.968 34.9576L23.2 33.1116L28.192 28.0676H30.844V45.4096Z" fill="white"/>
<path d="M46.545 45.4096H33.987V43.0176C37.6096 40.2789 40.071 38.2509 41.371 36.9336C42.6883 35.5989 43.347 34.3423 43.347 33.1636C43.347 32.3143 43.035 31.6643 42.411 31.2136C41.8043 30.7456 41.0676 30.5116 40.201 30.5116C38.2943 30.5116 36.7343 31.2049 35.521 32.5916L33.753 30.5896C34.4983 29.6883 35.4343 29.0036 36.561 28.5356C37.705 28.0503 38.901 27.8076 40.149 27.8076C41.917 27.8076 43.4076 28.2843 44.621 29.2376C45.8343 30.1909 46.441 31.4996 46.441 33.1636C46.441 34.6543 45.817 36.1363 44.569 37.6096C43.321 39.0829 41.4143 40.7903 38.849 42.7316H46.545V45.4096Z" fill="white"/>
</g>
<defs>
<clipPath id="clip0_1_193">
<rect width="72" height="72" fill="white" transform="translate(0.200012 0.807617)"/>
</clipPath>
</defs>
</svg>
