<svg width="41" height="38" viewBox="0 0 41 38" fill="none" xmlns="http://www.w3.org/2000/svg">
<g clip-path="url(#clip0_1_64)">
<path d="M38.8162 26.5296C38.3034 26.0722 37.6596 25.8613 37.0038 25.9367C35.9026 26.0626 34.4607 26.36 32.934 26.6749C30.8726 27.1001 28.7411 27.5397 27.109 27.6417C25.6993 27.7295 23.132 27.3622 22.3713 26.9638C21.8583 26.6951 21.5713 26.3655 21.4105 26.0741H24.5745C25.8798 26.0741 26.9416 25.0122 26.9416 23.707V21.8481C26.9416 20.5429 25.8798 19.4811 24.5745 19.4811H15.9016C15.5331 19.4698 11.1081 19.3865 8.04381 22.0003C7.50146 22.4629 7.07011 22.9 6.72613 23.2972C6.36225 22.8424 5.80308 22.5503 5.17668 22.5503H2.34944C1.8803 22.5503 1.5 22.9306 1.5 23.3998V35.3999C1.5 35.6252 1.58955 35.8413 1.74876 36.0006C1.90813 36.1599 2.12421 36.2494 2.34944 36.2494L5.1766 36.2493C6.27075 36.2493 7.16088 35.3592 7.16088 34.2651V33.6122C8.00635 33.6653 9.92243 33.8745 13.9775 34.6358C18.7662 35.535 21.7543 35.8398 24.1085 35.8397C25.7957 35.8397 27.1576 35.6832 28.6227 35.4769C30.4338 35.222 32.7116 34.5776 34.7213 34.0091C35.6517 33.746 36.5304 33.4974 37.308 33.3013C39.4033 32.7728 39.7163 31.4516 39.7163 30.711V28.547C39.7163 27.7866 39.3797 27.0323 38.8162 26.5296ZM5.46209 34.2651C5.46209 34.4224 5.33403 34.5504 5.17668 34.5504L3.19887 34.5505V24.2493H5.1766C5.33395 24.2493 5.46201 24.3773 5.46201 24.5346L5.46209 34.2651ZM38.0174 30.711C38.0174 30.8914 38.0174 31.3704 36.8926 31.654C36.0915 31.8561 35.2014 32.1078 34.259 32.3744C32.3014 32.9282 30.0826 33.5558 28.3859 33.7946C25.0434 34.2652 22.2566 34.4618 14.291 32.9663C10.1943 32.1971 8.16103 31.9646 7.16088 31.9113V25.6043C7.19122 25.5664 7.21929 25.526 7.24348 25.4819C7.46109 25.0849 7.99769 24.2726 9.14629 23.2929C11.7652 21.059 15.814 21.178 15.8538 21.1794C15.8648 21.1798 15.8758 21.1801 15.8868 21.1801H24.5745C24.943 21.1801 25.2428 21.4798 25.2428 21.8482V23.7071C25.2428 24.0756 24.943 24.3753 24.5745 24.3753H15.8868C15.4177 24.3753 15.0374 24.7556 15.0374 25.2247C15.0374 25.6939 15.4177 26.0742 15.8868 26.0742H19.6063C19.781 26.7707 20.2629 27.7773 21.5831 28.4688C22.7905 29.1013 25.7853 29.4271 27.2149 29.3373C28.9667 29.2279 31.1581 28.7759 33.2773 28.3388C34.7655 28.0318 36.1712 27.7418 37.1969 27.6245C37.4131 27.6001 37.5817 27.7049 37.6853 27.7974C37.8901 27.9802 38.0175 28.2675 38.0175 28.5472L38.0174 30.711Z" fill="#034DA0" stroke="#034DA0" stroke-width="1.5"/>
<path d="M35.7798 1.75757H12.2202C11.2717 1.75757 10.5 2.55667 10.5 3.53888V14.9762C10.5 15.9584 11.2717 16.7576 12.2202 16.7576H35.7798C36.7283 16.7576 37.5 15.9584 37.5 14.9762V3.53881C37.5 2.55667 36.7283 1.75757 35.7798 1.75757ZM32.4521 15.3684H15.5493C15.3716 13.2975 13.8167 11.6315 11.8416 11.3608V6.96482C13.756 6.70233 15.2753 5.12901 15.5288 3.14667H32.4726C32.7261 5.12861 34.2447 6.70167 36.1585 6.96469V11.3609C34.1841 11.6322 32.6299 13.298 32.4521 15.3684ZM36.1585 3.53881V5.55826C34.9856 5.32071 34.0597 4.36139 33.8307 3.14667H35.7798C35.9886 3.14673 36.1585 3.32263 36.1585 3.53881ZM12.2202 3.14673H14.1706C13.9417 4.36192 13.0151 5.32144 11.8415 5.55859V3.53881C11.8416 3.32263 12.0115 3.14673 12.2202 3.14673ZM11.8416 14.9762V12.7671C13.0754 13.0164 14.0361 14.0643 14.2001 15.3684H12.2202C12.0115 15.3684 11.8416 15.1924 11.8416 14.9762ZM35.7798 15.3684H33.8013C33.9653 14.0648 34.9252 13.017 36.1584 12.7673V14.9762C36.1585 15.1924 35.9886 15.3684 35.7798 15.3684Z" fill="#034DA0" stroke="#034DA0"/>
<path d="M21.4739 12.3806C22.1373 13.2686 23.0345 13.7576 24 13.7576C24.9655 13.7576 25.8627 13.2686 26.5261 12.3806C27.1542 11.54 27.5 10.4309 27.5 9.25757C27.5 8.08417 27.1542 6.97508 26.5261 6.13455C25.8627 5.24655 24.9655 4.75757 24 4.75757C23.0345 4.75757 22.1373 5.2466 21.4739 6.13455C20.8458 6.97508 20.5 8.08417 20.5 9.25757C20.5001 10.4309 20.8459 11.5401 21.4739 12.3806ZM24 12.6987C23.4918 12.6987 23.0196 12.4769 22.6289 12.0985C22.7123 11.4208 23.2952 10.8941 24 10.8941C24.705 10.8941 25.2878 11.4208 25.3713 12.0985C24.9804 12.4769 24.5083 12.6987 24 12.6987ZM24.0002 9.81309C23.5498 9.81309 23.1834 9.44939 23.1834 9.00233C23.1834 8.55526 23.5498 8.1915 24.0002 8.1915C24.4505 8.1915 24.817 8.5552 24.817 9.00233C24.8169 9.44934 24.4505 9.81309 24.0002 9.81309ZM24 5.81645C25.3417 5.81645 26.4334 7.36012 26.4334 9.25763C26.4334 9.89618 26.3093 10.4942 26.0941 11.0074C25.914 10.7131 25.6726 10.4601 25.3879 10.2649C25.6955 9.93202 25.8837 9.48863 25.8837 9.00233C25.8837 7.97137 25.0387 7.13263 24.0002 7.13263C22.9616 7.13263 22.1167 7.97137 22.1167 9.00233C22.1167 9.48857 22.3048 9.93191 22.6124 10.2648C22.3276 10.4599 22.0861 10.7131 21.906 11.0074C21.6908 10.4943 21.5668 9.89618 21.5668 9.25763C21.5668 7.36012 22.6583 5.81645 24 5.81645Z" fill="#034DA0" stroke="#034DA0" stroke-width="0.6"/>
</g>
<defs>
<clipPath id="clip0_1_64">
<rect width="40" height="37" fill="white" transform="translate(0.5 0.757568)"/>
</clipPath>
</defs>
</svg>
