<svg width="58" height="58" viewBox="0 0 58 58" fill="none" xmlns="http://www.w3.org/2000/svg">
<mask id="mask0_12_237" style="mask-type:luminance" maskUnits="userSpaceOnUse" x="0" y="0" width="58" height="58">
<path d="M57.8182 0.181885H0.545441V57.4546H57.8182V0.181885Z" fill="white"/>
</mask>
<g mask="url(#mask0_12_237)">
<path d="M2.1818 57.4547C1.85453 57.4547 1.52726 57.291 1.19999 57.1274C0.872714 56.9638 0.709077 56.6365 0.545441 56.3092C0.545441 55.8183 0.545441 55.4911 0.709077 55.1638C0.872713 54.8365 1.03635 54.5092 1.36362 54.3456C1.52726 54.182 25.4182 39.1274 31.3091 23.9092C31.4727 23.4183 31.8 23.0911 32.2909 22.9274C32.7818 22.7638 33.1091 22.7638 33.6 22.9274C34.0909 23.0911 34.4182 23.4183 34.5818 23.7456C34.7454 24.2365 34.7454 24.5638 34.5818 25.0547C28.2 41.4183 4.30908 56.4729 3.16362 57.1274C2.83635 57.291 2.50908 57.4547 2.1818 57.4547Z" fill="#0078FF"/>
<path d="M7.74548 52.5455V50.7455C7.74548 41.7455 10.2 32.9092 14.7818 25.2182L15.2727 24.4001H21.8182L20.1818 19.3273L20.6727 18.6728C30.3273 5.41825 46.6909 1.32734 53.4 0.181885C53.8909 0.181885 54.5454 0.181885 55.0364 0.345521C55.5273 0.509157 56.1818 0.83643 56.5091 1.1637C57 1.49098 57.3273 1.98188 57.4909 2.63643C57.6545 3.29098 57.8182 3.78188 57.8182 4.27279C54.7091 47.3092 10.0364 52.3819 9.70914 52.3819L7.74548 52.5455ZM17.2364 27.8364C13.6364 34.2182 11.5091 41.4183 11.1818 48.7819C19.5273 47.4728 51.9273 39.7819 54.3818 4.10916V3.94552C54.3818 3.94552 54.3818 3.78188 54.2182 3.78188C54.2182 3.78188 54.0545 3.78188 54.0545 3.61825H53.8909C47.8364 4.60007 32.7818 8.3637 23.9454 19.9819L25.2545 24.2364C25.4182 24.7273 25.4182 25.0546 25.2545 25.5455C25.2545 26.0364 25.0909 26.3637 24.7636 26.691C24.4364 27.0182 24.1091 27.3455 23.7818 27.5092C23.4545 27.6728 22.9636 27.8364 22.4727 27.8364H17.2364Z" fill="#0078FF"/>
</g>
</svg>
