<svg width="73" height="73" viewBox="0 0 73 73" fill="none" xmlns="http://www.w3.org/2000/svg">
<g clip-path="url(#clip0_1_186)">
<path d="M42.86 34.7244V34.7452M22.3871 29.2619C21.4733 28.5596 20.7715 27.6184 20.3593 26.5422C19.947 25.466 19.8403 24.2967 20.051 23.1637C20.2617 22.0307 20.7816 20.978 21.5532 20.122C22.3248 19.2659 23.318 18.6399 24.4232 18.313C25.5283 17.9862 26.7023 17.9713 27.8154 18.2699C28.9284 18.5686 29.9373 19.1692 30.7304 20.0053C31.5234 20.8415 32.0699 21.8807 32.3093 23.008C32.5488 24.1353 32.4718 25.3068 32.0871 26.3931" stroke="white" stroke-width="3" stroke-linecap="round" stroke-linejoin="round"/>
<path d="M44.9433 20.1411V28.064C47.5216 29.5559 49.4847 31.917 50.4808 34.7244H53.2745C53.8271 34.7244 54.357 34.9439 54.7477 35.3346C55.1384 35.7253 55.3579 36.2552 55.3579 36.8077V40.9744C55.3579 41.5269 55.1384 42.0568 54.7477 42.4475C54.357 42.8382 53.8271 43.0577 53.2745 43.0577H50.4787C49.7787 45.0369 48.5891 46.8077 47.0245 48.2098V52.4327C47.0245 53.2615 46.6953 54.0564 46.1092 54.6425C45.5232 55.2285 44.7283 55.5577 43.8995 55.5577C43.0707 55.5577 42.2759 55.2285 41.6898 54.6425C41.1038 54.0564 40.7745 53.2615 40.7745 52.4327V51.2182C40.0861 51.3335 39.3892 51.3913 38.6912 51.3911H30.3579C29.6598 51.3913 28.963 51.3335 28.2745 51.2182V52.4327C28.2745 53.2615 27.9453 54.0564 27.3592 54.6425C26.7732 55.2285 25.9783 55.5577 25.1495 55.5577C24.3207 55.5577 23.5259 55.2285 22.9398 54.6425C22.3538 54.0564 22.0245 53.2615 22.0245 52.4327V48.2098C20.137 46.5223 18.8064 44.3013 18.2089 41.8408C17.6114 39.3803 17.7752 36.7964 18.6786 34.4311C19.582 32.0658 21.1824 30.0306 23.2679 28.5949C25.3535 27.1592 27.8259 26.3907 30.3579 26.3911H35.5662L44.9412 20.1411H44.9433Z" stroke="white" stroke-width="3" stroke-linecap="round" stroke-linejoin="round"/>
</g>
<defs>
<clipPath id="clip0_1_186">
<rect width="72" height="72" fill="white" transform="translate(0.609985 0.807617)"/>
</clipPath>
</defs>
</svg>
