<svg width="72" height="72" viewBox="0 0 72 72" fill="none" xmlns="http://www.w3.org/2000/svg">
<path d="M13.2801 32.0003C13.2801 23.8403 13.2801 19.8403 14.2401 18.5603C15.2001 17.1203 19.04 15.8403 26.56 13.2803L28 12.6403C32 11.2003 33.92 10.5603 36 10.5603C38.08 10.5603 40 11.2003 44 12.6403L45.44 13.1203C53.12 15.6803 56.8 16.9603 57.76 18.4003C58.72 19.8403 58.7202 23.8403 58.7202 31.8403V36.0003C58.7202 50.2403 48 57.2803 41.28 60.1603C39.52 60.9603 38.56 61.2803 36 61.2803C33.44 61.2803 32.48 60.8003 30.72 60.1603C24 57.1203 13.2801 50.2403 13.2801 36.0003V32.0003Z" stroke="#0078FF" stroke-width="4"/>
<path d="M29.6 36.9601L33.28 40.9601L42.4 30.8801" stroke="#0078FF" stroke-width="4" stroke-linecap="round" stroke-linejoin="round"/>
</svg>
