<svg width="67" height="67" viewBox="0 0 67 67" fill="none" xmlns="http://www.w3.org/2000/svg">
<g clip-path="url(#clip0_3_895)">
<g clip-path="url(#clip1_3_895)">
<mask id="mask0_3_895" style="mask-type:luminance" maskUnits="userSpaceOnUse" x="0" y="0" width="67" height="67">
<path d="M67 0H0V67H67V0Z" fill="white"/>
</mask>
<g mask="url(#mask0_3_895)">
<path d="M46.1616 66.3437C37.7388 67.2188 29.2065 67.2188 20.7837 66.3437C10.1731 65.1951 1.75021 56.8269 0.601639 46.1616C-0.273463 37.7388 -0.273463 29.2065 0.601639 20.7837C1.8049 10.1731 10.1731 1.8049 20.8384 0.656326C29.2612 -0.218776 37.7935 -0.218776 46.2163 0.656326C56.8269 1.8049 65.2498 10.1731 66.3984 20.8384C67.2735 29.2612 67.2735 37.7935 66.3984 46.2163C65.1951 56.8269 56.8269 65.1951 46.1616 66.3437Z" fill="#195223"/>
<mask id="mask1_3_895" style="mask-type:luminance" maskUnits="userSpaceOnUse" x="5" y="3" width="61" height="62">
<path d="M31.178 3.82865L65.9057 29.5374L40.197 64.265L5.46931 38.5563L31.178 3.82865Z" fill="white"/>
</mask>
<g mask="url(#mask1_3_895)">
<path d="M50.4999 18.1325C50.8745 18.4098 50.9534 18.9383 50.676 19.3129L47.5796 23.4956C47.3023 23.8701 46.7738 23.9491 46.3992 23.6717C46.0246 23.3944 45.9457 22.8659 46.2231 22.4913L49.3195 18.3086C49.5968 17.934 50.1253 17.8551 50.4999 18.1325Z" fill="white"/>
<path d="M35.007 20.446L39.1898 23.5424C39.5644 23.8198 39.6432 24.3482 39.3659 24.7228C39.0886 25.0974 38.5601 25.1763 38.1855 24.899L34.0028 21.8025C33.6282 21.5252 33.5493 20.9968 33.8266 20.6221C34.104 20.2475 34.6324 20.1687 35.007 20.446Z" fill="white"/>
<path d="M48.6308 30.5287L52.8135 33.6251C53.1881 33.9025 53.267 34.4309 52.9896 34.8055C52.7123 35.1801 52.1839 35.259 51.8092 34.9817L47.6265 31.8852C47.252 31.608 47.1731 31.0795 47.4504 30.7049C47.7278 30.3303 48.2562 30.2514 48.6308 30.5287Z" fill="white"/>
<path d="M49.9572 25.8821L53.3939 25.3692C53.8549 25.3004 54.2843 25.6184 54.3532 26.0794C54.422 26.5403 54.104 26.9698 53.6431 27.0386L50.2063 27.5515C49.9757 27.5859 49.7532 27.5236 49.5796 27.3951C49.406 27.2666 49.2814 27.0718 49.247 26.8414C49.1783 26.3804 49.4962 25.9509 49.9572 25.8821Z" fill="white"/>
<path d="M41.7737 16.7689C42.2347 16.7001 42.6642 17.0181 42.733 17.4791L43.2459 20.9158C43.3147 21.3767 42.9967 21.8062 42.5357 21.8751C42.3052 21.9095 42.0826 21.8471 41.909 21.7186C41.7354 21.5902 41.6108 21.3954 41.5765 21.1649L41.0636 17.7282C40.9948 17.2673 41.3127 16.8378 41.7737 16.7689Z" fill="white"/>
<path d="M28.0782 25.4427C28.5361 25.7817 28.8736 26.2233 29.0844 26.7123C30.1604 25.9036 31.6835 25.8567 32.8193 26.6975C33.5411 27.2319 33.9652 28.0207 34.0611 28.8495C34.8817 28.6993 35.7601 28.8746 36.4819 29.409C36.8975 29.7166 37.2138 30.1089 37.4265 30.5443L40.8977 25.8553C41.9221 24.4715 43.8813 24.1791 45.2652 25.2035C46.649 26.2279 46.9414 28.1872 45.9169 29.571L43.2694 33.1473C42.9921 33.5219 42.4636 33.6008 42.089 33.3235C41.7144 33.0462 41.6355 32.5177 41.9128 32.1431L44.5604 28.5667C45.0311 27.9309 44.8967 27.0308 44.2609 26.5601C43.6251 26.0894 42.7249 26.2237 42.2542 26.8595L33.8483 38.2144C33.571 38.589 33.0425 38.6679 32.6679 38.3905C32.2933 38.1132 32.2144 37.5847 32.4918 37.2101L35.7772 32.7722C36.2478 32.1364 36.1135 31.2362 35.4777 30.7655C34.8419 30.2948 33.9417 30.4292 33.471 31.065L32.9864 31.7196L30.1856 35.5029C29.9083 35.8775 29.3798 35.9564 29.0052 35.6791C28.6306 35.4017 28.5518 34.8733 28.8291 34.4987L31.6299 30.7153L32.1145 30.0607C32.5852 29.4249 32.4508 28.5247 31.815 28.0541C31.1792 27.5834 30.279 27.7177 29.8083 28.3535L28.73 29.8101L27.8616 30.9832L26.5229 32.7915C26.2456 33.1661 25.7171 33.245 25.3425 32.9677C24.9679 32.6904 24.889 32.1619 25.1664 31.7873L26.5051 29.9789L27.3735 28.8059C27.8442 28.17 27.7098 27.2699 27.074 26.7992C26.4382 26.3285 25.538 26.4628 25.0673 27.0986L19.8165 34.1916C19.4424 34.6969 19.1135 35.2364 18.8388 35.7954C18.6331 36.2137 18.1274 36.3861 17.7092 36.1805C17.6625 36.1575 17.6189 36.1309 17.5784 36.1009C17.2571 35.863 17.1414 35.4224 17.324 35.0508C17.6435 34.401 18.0256 33.774 18.46 33.1873L23.7108 26.0944C24.7352 24.7106 26.6944 24.4183 28.0782 25.4427Z" fill="white"/>
<path d="M16.9735 41.5627C17.4317 41.478 17.872 41.7809 17.9567 42.2391C18.4349 44.8253 19.8631 47.1119 21.9782 48.6777C25.1515 51.0269 29.4606 51.3586 32.956 49.5226L40.8695 45.3663C41.5832 44.9915 41.8906 44.1186 41.5693 43.3792C41.237 42.6148 40.3389 42.2484 39.5668 42.5623L34.673 44.5521C34.3226 44.6945 33.9202 44.5865 33.6883 44.2877C33.4565 43.9889 33.4518 43.5723 33.6768 43.2683L38.5976 36.6212C38.875 36.2466 39.4034 36.1677 39.778 36.445C40.1527 36.7223 40.2315 37.2508 39.9542 37.6254L36.8221 41.8563L38.9311 40.9988C40.5724 40.3314 42.4112 41.0816 43.1173 42.7065C43.789 44.2522 43.1464 46.0769 41.6542 46.8605L33.7408 51.0169C31.7332 52.0713 29.4769 52.5367 27.216 52.3626C24.955 52.1887 22.7965 51.3835 20.9739 50.0342C18.5141 48.2132 16.8532 45.5539 16.297 42.546C16.2123 42.0876 16.5151 41.6474 16.9735 41.5627Z" fill="white"/>
<path d="M16.922 37.9627C17.1415 37.9299 17.3703 37.9869 17.5487 38.1189C17.727 38.251 17.8483 38.4531 17.8811 38.6727C17.9138 38.8922 17.8569 39.121 17.7248 39.2993C17.5922 39.4784 17.3906 39.599 17.1711 39.6318C16.9515 39.6645 16.7228 39.6076 16.5444 39.4755C16.366 39.3434 16.2448 39.1413 16.212 38.9218C16.1792 38.7022 16.2357 38.4742 16.3683 38.2951C16.5003 38.1167 16.7024 37.9954 16.922 37.9627Z" fill="white"/>
<path d="M40.7583 34.1185C40.9779 34.0857 41.2066 34.1427 41.385 34.2747C41.5633 34.4068 41.6846 34.6089 41.7174 34.8285C41.7501 35.048 41.6932 35.2766 41.5611 35.455C41.4291 35.6335 41.2269 35.7548 41.0074 35.7876C40.7878 35.8203 40.5591 35.7633 40.3807 35.6313C40.2023 35.4992 40.0811 35.2971 40.0483 35.0776C40.0155 34.858 40.0725 34.6292 40.2046 34.4508C40.3366 34.2724 40.5387 34.1512 40.7583 34.1185Z" fill="white"/>
</g>
</g>
</g>
</g>
<defs>
<clipPath id="clip0_3_895">
<rect width="67" height="67" fill="white"/>
</clipPath>
<clipPath id="clip1_3_895">
<rect width="67" height="67" fill="white"/>
</clipPath>
</defs>
</svg>
