<svg width="67" height="67" viewBox="0 0 67 67" fill="none" xmlns="http://www.w3.org/2000/svg">
<g clip-path="url(#clip0_3_807)">
<g clip-path="url(#clip1_3_807)">
<mask id="mask0_3_807" style="mask-type:luminance" maskUnits="userSpaceOnUse" x="0" y="0" width="67" height="67">
<path d="M67 0H0V67H67V0Z" fill="white"/>
</mask>
<g mask="url(#mask0_3_807)">
<path d="M46.1616 66.3437C37.7388 67.2188 29.2065 67.2188 20.7837 66.3437C10.1731 65.1951 1.75021 56.8269 0.601639 46.1616C-0.273463 37.7388 -0.273463 29.2065 0.601639 20.7837C1.8049 10.1731 10.1731 1.8049 20.8384 0.656326C29.2612 -0.218776 37.7935 -0.218776 46.2163 0.656326C56.8269 1.8049 65.2498 10.1731 66.3984 20.8384C67.2735 29.2612 67.2735 37.7935 66.3984 46.2163C65.1951 56.8269 56.8269 65.1951 46.1616 66.3437Z" fill="#195223"/>
<path d="M41.1875 25.8125H25.8125V41.1875H41.1875V25.8125Z" fill="white"/>
<path fill-rule="evenodd" clip-rule="evenodd" d="M27.0938 16.8438C27.4336 16.8438 27.7594 16.9787 27.9997 17.219C28.24 17.4593 28.375 17.7852 28.375 18.125V19.4062H32.2188V18.125C32.2188 17.7852 32.3537 17.4593 32.594 17.219C32.8343 16.9787 33.1602 16.8438 33.5 16.8438C33.8398 16.8438 34.1657 16.9787 34.406 17.219C34.6463 17.4593 34.7812 17.7852 34.7812 18.125V19.4062H38.625V18.125C38.625 17.7852 38.76 17.4593 39.0003 17.219C39.2406 16.9787 39.5664 16.8438 39.9062 16.8438C40.2461 16.8438 40.572 16.9787 40.8122 17.219C41.0525 17.4593 41.1875 17.7852 41.1875 18.125V19.4062H42.4688C43.828 19.4062 45.1315 19.9462 46.0927 20.9073C47.0538 21.8685 47.5938 23.172 47.5938 24.5312V25.8125H48.875C49.2148 25.8125 49.5407 25.9474 49.781 26.1877C50.0213 26.4281 50.1562 26.7538 50.1562 27.0938C50.1562 27.4335 50.0213 27.7594 49.781 27.9997C49.5407 28.24 49.2148 28.375 48.875 28.375H47.5938V32.2188H48.875C49.2148 32.2188 49.5407 32.3537 49.781 32.594C50.0213 32.8343 50.1562 33.1602 50.1562 33.5C50.1562 33.8398 50.0213 34.1656 49.781 34.4059C49.5407 34.6462 49.2148 34.7812 48.875 34.7812H47.5938V38.625H48.875C49.2148 38.625 49.5407 38.76 49.781 39.0003C50.0213 39.2406 50.1562 39.5664 50.1562 39.9062C50.1562 40.246 50.0213 40.5719 49.781 40.8121C49.5407 41.0524 49.2148 41.1875 48.875 41.1875H47.5938V42.4688C47.5938 43.8279 47.0538 45.1315 46.0927 46.0927C45.1315 47.0538 43.828 47.5938 42.4688 47.5938H41.1875V48.875C41.1875 49.2148 41.0525 49.5406 40.8122 49.7809C40.572 50.0212 40.2461 50.1562 39.9062 50.1562C39.5664 50.1562 39.2406 50.0212 39.0003 49.7809C38.76 49.5406 38.625 49.2148 38.625 48.875V47.5938H34.7812V48.875C34.7812 49.2148 34.6463 49.5406 34.406 49.7809C34.1657 50.0212 33.8398 50.1562 33.5 50.1562C33.1602 50.1562 32.8343 50.0212 32.594 49.7809C32.3537 49.5406 32.2188 49.2148 32.2188 48.875V47.5938H28.375V48.875C28.375 49.2148 28.24 49.5406 27.9997 49.7809C27.7594 50.0212 27.4336 50.1562 27.0938 50.1562C26.7539 50.1562 26.4281 50.0212 26.1878 49.7809C25.9475 49.5406 25.8125 49.2148 25.8125 48.875V47.5938H24.5312C23.172 47.5938 21.8685 47.0538 20.9073 46.0927C19.9462 45.1315 19.4062 43.8279 19.4062 42.4688V41.1875H18.125C17.7852 41.1875 17.4593 41.0524 17.219 40.8121C16.9787 40.5719 16.8438 40.246 16.8438 39.9062C16.8438 39.5664 16.9787 39.2406 17.219 39.0003C17.4593 38.76 17.7852 38.625 18.125 38.625H19.4062V34.7812H18.125C17.7852 34.7812 17.4593 34.6462 17.219 34.4059C16.9787 34.1656 16.8438 33.8398 16.8438 33.5C16.8438 33.1602 16.9787 32.8343 17.219 32.594C17.4593 32.3537 17.7852 32.2188 18.125 32.2188H19.4062V28.375H18.125C17.7852 28.375 17.4593 28.24 17.219 27.9997C16.9787 27.7594 16.8438 27.4335 16.8438 27.0938C16.8438 26.7538 16.9787 26.4281 17.219 26.1877C17.4593 25.9474 17.7852 25.8125 18.125 25.8125H19.4062V24.5312C19.4062 23.172 19.9462 21.8685 20.9073 20.9073C21.8685 19.9462 23.172 19.4062 24.5312 19.4062H25.8125V18.125C25.8125 17.7852 25.9475 17.4593 26.1878 17.219C26.4281 16.9787 26.7539 16.8438 27.0938 16.8438ZM23.25 24.5312C23.25 24.1914 23.385 23.8656 23.6253 23.6252C23.8656 23.3849 24.1914 23.25 24.5312 23.25H42.4688C42.8086 23.25 43.1345 23.3849 43.3747 23.6252C43.615 23.8656 43.75 24.1914 43.75 24.5312V42.4688C43.75 42.8085 43.615 43.1344 43.3747 43.3746C43.1345 43.6149 42.8086 43.75 42.4688 43.75H24.5312C24.1914 43.75 23.8656 43.6149 23.6253 43.3746C23.385 43.1344 23.25 42.8085 23.25 42.4688V24.5312Z" fill="white"/>
</g>
</g>
</g>
<defs>
<clipPath id="clip0_3_807">
<rect width="67" height="67" fill="white"/>
</clipPath>
<clipPath id="clip1_3_807">
<rect width="67" height="67" fill="white"/>
</clipPath>
</defs>
</svg>
