<svg width="67" height="67" viewBox="0 0 67 67" fill="none" xmlns="http://www.w3.org/2000/svg">
<g clip-path="url(#clip0_3_875)">
<g clip-path="url(#clip1_3_875)">
<mask id="mask0_3_875" style="mask-type:luminance" maskUnits="userSpaceOnUse" x="0" y="0" width="67" height="67">
<path d="M67 0H0V67H67V0Z" fill="white"/>
</mask>
<g mask="url(#mask0_3_875)">
<path d="M46.1616 66.3437C37.7388 67.2188 29.2065 67.2188 20.7837 66.3437C10.1731 65.1951 1.75021 56.8269 0.601639 46.1616C-0.273463 37.7388 -0.273463 29.2065 0.601639 20.7837C1.8049 10.1731 10.1731 1.8049 20.8384 0.656326C29.2612 -0.218776 37.7935 -0.218776 46.2163 0.656326C56.8269 1.8049 65.2498 10.1731 66.3984 20.8384C67.2735 29.2612 67.2735 37.7935 66.3984 46.2163C65.1951 56.8269 56.8269 65.1951 46.1616 66.3437Z" fill="#195223"/>
<mask id="mask1_3_875" style="mask-type:luminance" maskUnits="userSpaceOnUse" x="17" y="17" width="33" height="33">
<path d="M49.2244 17.502H17.502V49.2244H49.2244V17.502Z" fill="white"/>
</mask>
<g mask="url(#mask1_3_875)">
<path d="M47.6383 23.8465H40.7652V19.0882C40.7652 18.7968 41.0025 18.5595 41.2939 18.5595H43.4087C43.7 18.5595 43.9373 18.7968 43.9373 19.0882V19.6169H43.4087C43.1168 19.6169 42.88 19.8537 42.88 20.1455C42.88 20.4374 43.1168 20.6742 43.4087 20.6742H43.9373V21.7317H43.4087C43.1168 21.7317 42.88 21.9685 42.88 22.2604C42.88 22.5522 43.1168 22.789 43.4087 22.789H44.4661C44.7579 22.789 44.9948 22.5522 44.9948 22.2604V19.0882C44.9948 18.2137 44.2831 17.502 43.4087 17.502H41.2939C40.4194 17.502 39.7077 18.2137 39.7077 19.0882V24.1564L38.9601 24.904H27.7663L27.0187 24.1564V19.0882C27.0187 18.2137 26.3071 17.502 25.4326 17.502H23.3178C22.4433 17.502 21.7317 18.2137 21.7317 19.0882V22.2604C21.7317 22.5522 21.9686 22.7891 22.2604 22.7891C22.5522 22.7891 22.7891 22.5522 22.7891 22.2604V19.0882C22.7891 18.7968 23.0264 18.5595 23.3178 18.5595H25.4326C25.724 18.5595 25.9613 18.7968 25.9613 19.0882V19.6169H25.4326C25.1408 19.6169 24.9039 19.8537 24.9039 20.1455C24.9039 20.4374 25.1408 20.6742 25.4326 20.6742H25.9613V21.7317H25.4326C25.1408 21.7317 24.9039 21.9685 24.9039 22.2604C24.9039 22.5522 25.1408 22.789 25.4326 22.789H25.9613V23.8465H19.0881C18.2137 23.8465 17.502 24.5582 17.502 25.4327V27.5475C17.502 28.2358 17.9451 28.8169 18.5594 29.0358V46.5809C18.5594 48.0386 19.7453 49.2245 21.203 49.2245H45.5235C46.9812 49.2245 48.1671 48.0386 48.1671 46.5809V30.7197C48.1671 30.4279 47.9302 30.191 47.6384 30.191C47.3466 30.191 47.1097 30.4279 47.1097 30.7197V46.5809C47.1097 47.4554 46.3981 48.1671 45.5236 48.1671H21.2029C20.3285 48.1671 19.6168 47.4554 19.6168 46.5809V28.6049C19.6168 28.3131 19.38 28.0762 19.0881 28.0762C18.7968 28.0762 18.5594 27.8389 18.5594 27.5475V25.4327C18.5594 25.1413 18.7968 24.904 19.0881 24.904H26.2712L27.1736 25.8064C27.2725 25.9053 27.4073 25.9613 27.5474 25.9613H39.179C39.3191 25.9613 39.4534 25.9053 39.5528 25.8064L40.4552 24.904H47.6383C47.9297 24.904 48.167 25.1413 48.167 25.4327V27.5475C48.167 27.8388 47.9297 28.0762 47.6383 28.0762H21.2029C20.9111 28.0762 20.6743 28.313 20.6743 28.6048C20.6743 28.8967 20.9111 29.1335 21.2029 29.1335H47.6383C48.5128 29.1335 49.2245 28.4219 49.2245 27.5474V25.4327C49.2245 24.5582 48.5128 23.8465 47.6383 23.8465Z" fill="white"/>
<path d="M40.2365 38.6501C39.9446 38.6501 39.7078 38.887 39.7078 39.1788C39.7078 39.4706 39.9446 39.7075 40.2365 39.7075H44.4661C44.758 39.7075 44.9948 39.4706 44.9948 39.1788C44.9948 38.887 44.758 38.6501 44.4661 38.6501H40.2365Z" fill="white"/>
<path d="M31.5376 44.9375C31.6138 44.9761 31.6957 44.9947 31.7766 44.9947C31.9299 44.9947 32.0801 44.9281 32.1831 44.8043L37.4702 38.4598C37.6019 38.3023 37.6299 38.0829 37.5432 37.8973C37.456 37.7118 37.2693 37.5928 37.0642 37.5928H34.537L35.4675 32.9381C35.5167 32.6939 35.3882 32.4485 35.1599 32.3496C34.9315 32.2502 34.6639 32.3248 34.5191 32.5273L29.232 39.9292C29.1173 40.0905 29.1014 40.3019 29.1924 40.4785C29.2828 40.654 29.4641 40.7651 29.6624 40.7651H32.1574L31.2644 44.3375C31.2045 44.577 31.3177 44.826 31.5376 44.9375ZM30.6896 39.7076L33.9475 35.1464L33.3733 38.0178C33.3421 38.1733 33.3828 38.334 33.4833 38.4567C33.5837 38.5794 33.7333 38.6502 33.8919 38.6502H35.9354L32.8504 42.3517L33.3473 40.3648C33.387 40.2068 33.3511 40.0391 33.2511 39.9112C33.1512 39.7826 32.9973 39.7076 32.8345 39.7076H30.6896Z" fill="white"/>
<path d="M24.3752 41.8226C24.667 41.8226 24.9039 41.5857 24.9039 41.2939V39.7078H26.49C26.7818 39.7078 27.0187 39.4709 27.0187 39.1791C27.0187 38.8872 26.7818 38.6504 26.49 38.6504H24.9039V37.0643C24.9039 36.7724 24.667 36.5356 24.3752 36.5356C24.0834 36.5356 23.8465 36.7724 23.8465 37.0643V38.6504H22.2604C21.9686 38.6504 21.7317 38.8872 21.7317 39.1791C21.7317 39.4709 21.9686 39.7078 22.2604 39.7078H23.8465V41.2939C23.8465 41.5857 24.0834 41.8226 24.3752 41.8226Z" fill="white"/>
</g>
</g>
</g>
</g>
<defs>
<clipPath id="clip0_3_875">
<rect width="67" height="67" fill="white"/>
</clipPath>
<clipPath id="clip1_3_875">
<rect width="67" height="67" fill="white"/>
</clipPath>
</defs>
</svg>
