<svg width="67" height="67" viewBox="0 0 67 67" fill="none" xmlns="http://www.w3.org/2000/svg">
<g clip-path="url(#clip0_3_856)">
<g clip-path="url(#clip1_3_856)">
<mask id="mask0_3_856" style="mask-type:luminance" maskUnits="userSpaceOnUse" x="0" y="0" width="67" height="67">
<path d="M67 0H0V67H67V0Z" fill="white"/>
</mask>
<g mask="url(#mask0_3_856)">
<path d="M46.1616 66.3437C37.7388 67.2188 29.2065 67.2188 20.7837 66.3437C10.1731 65.1951 1.75021 56.8269 0.601639 46.1616C-0.273463 37.7388 -0.273463 29.2065 0.601639 20.7837C1.8049 10.1731 10.1731 1.8049 20.8384 0.656326C29.2612 -0.218776 37.7935 -0.218776 46.2163 0.656326C56.8269 1.8049 65.2498 10.1731 66.3984 20.8384C67.2735 29.2612 67.2735 37.7935 66.3984 46.2163C65.1951 56.8269 56.8269 65.1951 46.1616 66.3437Z" fill="#195223"/>
<mask id="mask1_3_856" style="mask-type:luminance" maskUnits="userSpaceOnUse" x="16" y="16" width="39" height="39">
<path d="M54.1469 16.4082H16.4081V54.147H54.1469V16.4082Z" fill="white"/>
</mask>
<g mask="url(#mask1_3_856)">
<path d="M40.2991 30.0853C40.162 29.9482 39.9726 29.8694 39.778 29.8694C39.5842 29.8694 39.3941 29.9482 39.257 30.0853C39.1199 30.2224 39.0411 30.4118 39.0411 30.6064C39.0411 30.8002 39.1199 30.9903 39.257 31.1273C39.3941 31.2644 39.5842 31.3433 39.778 31.3433C39.9726 31.3433 40.162 31.2644 40.2991 31.1273C40.4369 30.9903 40.515 30.8002 40.515 30.6064C40.515 30.4117 40.4369 30.2224 40.2991 30.0853Z" fill="white"/>
<path d="M52.5097 21.7718C52.1569 21.5687 51.7064 21.6898 51.5033 22.0424L48.1605 27.8443C47.8565 27.8059 47.551 27.8063 47.2512 27.8454C47.2499 27.8456 47.2488 27.8456 47.2475 27.8458C47.0405 27.8731 46.836 27.9179 46.6371 27.9829L46.2502 28.1093L45.3633 28.3469C44.9119 28.388 44.4271 28.2806 44.0031 28.0359L40.0738 25.766C39.578 25.4796 39.4077 24.8433 39.6939 24.3475L40.4206 23.0888C40.4206 23.089 40.4207 23.0887 40.4206 23.0888L43.6479 17.5147C43.8518 17.1626 43.7317 16.7117 43.3794 16.5077C43.0272 16.3039 42.5764 16.424 42.3724 16.7763L39.5141 21.713L39.1782 21.5192C37.7396 20.6885 25.8471 18.475 23.4776 18.0398C23.4726 18.0389 23.4676 18.0381 23.4626 18.0372C22.0481 17.8079 20.709 18.3949 20.0516 19.5335L18.839 21.6342C17.9969 23.0927 18.5742 25.0201 20.1194 26.0193L19.8296 26.5214C19.5797 26.9543 19.5133 27.4584 19.6426 27.9412C19.772 28.424 20.0816 28.8274 20.5145 29.0773L20.668 29.166C20.9563 29.3325 21.2762 29.4174 21.6006 29.4174C21.7631 29.4174 21.9266 29.3961 22.0879 29.3528C22.5706 29.2234 22.9741 28.9139 23.224 28.4811L23.5112 27.9836L25.2471 28.9858C22.9009 29.7687 20.7966 31.2294 19.2384 33.1761C18.866 33.6414 18.5284 34.1314 18.226 34.6412C18.2063 34.6693 18.1891 34.6988 18.1735 34.7293C17.2888 36.2479 16.7199 37.9399 16.5072 39.6881C16.5033 39.7116 16.5005 39.7352 16.4989 39.7589C16.4419 40.2484 16.4124 40.7421 16.4124 41.2376C16.4124 44.5891 17.6965 47.6462 19.7982 49.9434C19.8341 49.9929 19.8757 50.038 19.9229 50.0773C21.29 51.5301 22.9887 52.6675 24.8974 53.3659C24.9276 53.3788 24.9583 53.3897 24.9897 53.3985C26.3445 53.8826 27.8029 54.1472 29.322 54.1472C31.0154 54.1472 32.6333 53.8189 34.1163 53.2235C34.1546 53.2112 34.1921 53.1962 34.228 53.1777C36.0478 52.4272 37.6598 51.2725 38.9514 49.8258C38.996 49.7862 39.0357 49.7415 39.0695 49.6926C41.0383 47.426 42.2316 44.4685 42.2316 41.2375C42.2316 40.7611 42.2037 40.2825 42.1518 39.8104C42.1509 39.8001 42.1497 39.7897 42.1483 39.7794C42.1413 39.7173 42.1355 39.6549 42.1276 39.5931C42.1267 39.5859 42.1257 39.5788 42.1246 39.5716L42.0399 39.0327L42.238 38.6896C42.6394 38.8316 43.0512 38.9017 43.4542 38.9017C44.5655 38.9017 45.6068 38.3774 46.1604 37.4187L47.3733 35.3179L50.2241 30.3801C50.6271 29.6818 50.3481 28.7634 49.6021 28.3327C49.5965 28.3296 49.5909 28.3268 49.5853 28.3236L52.7803 22.7781C52.9836 22.4256 52.8624 21.975 52.5097 21.7718ZM34.904 21.8332L35.5218 24.1392L34.4669 23.9561L33.8347 21.5965C34.2057 21.6773 34.5632 21.7564 34.904 21.8332ZM29.5294 20.7024L30.1925 23.1772L29.1376 22.9941L28.467 20.4914C28.8211 20.5613 29.1759 20.6318 29.5294 20.7024ZM21.9473 27.7442C21.8942 27.8361 21.8086 27.9018 21.7062 27.9292C21.6037 27.9568 21.4968 27.9426 21.4049 27.8895L21.2513 27.8009C21.1594 27.7478 21.0937 27.6621 21.0663 27.5598C21.0388 27.4573 21.0529 27.3503 21.106 27.2584L21.3931 26.7609L22.2346 27.2467L21.9473 27.7442ZM25.4223 30.4824L23.745 33.3901L20.4417 34.0105C21.7243 32.4332 23.4304 31.199 25.4223 30.4824ZM27.9048 33.0561C28.5519 33.0561 29.1822 32.7205 29.5284 32.1209L29.8155 31.6234L31.519 32.607C32.1075 32.9468 32.7828 33.0637 33.4203 32.9365C33.7049 32.8797 34.0267 32.9386 34.3032 33.0983L36.3412 34.2749C37.0211 34.6675 37.545 35.2883 37.7787 35.9784C37.8361 36.148 37.9532 36.2908 38.1082 36.3803L38.8113 36.7862L38.5106 37.3069C37.9947 38.2004 38.302 39.347 39.1954 39.8629L39.349 39.9515C39.5765 40.0829 39.8205 40.1602 40.0663 40.1887L37.3427 42.9362L33.71 42.1206L33.3233 40.9305L32.4958 38.3838L33.7545 36.4712C33.9782 36.1313 33.884 35.6743 33.544 35.4505C33.2042 35.2269 32.7471 35.321 32.5233 35.6609L31.2883 37.5376H27.3583L25.0781 34.0287L26.1831 32.1131C26.342 32.3594 26.5579 32.5664 26.819 32.7171L26.9725 32.8057C27.2663 32.9756 27.5876 33.0561 27.9048 33.0561ZM27.4104 30.8983L27.6976 30.4009L28.2108 30.6971L28.5391 30.8867L28.252 31.3841C28.1424 31.5738 27.8991 31.639 27.7095 31.5296L27.5559 31.441C27.5559 31.4409 27.556 31.441 27.5559 31.441C27.464 31.3879 27.3982 31.3022 27.3708 31.1998C27.3434 31.0974 27.3574 30.9902 27.4104 30.8983ZM32.2726 42.4662L30.8032 43.5338L29.3339 44.6013L26.3953 42.4662L27.5177 39.0116H31.1501L32.2726 42.4662ZM19.288 35.7269L23.865 34.8672L26.1487 38.3815L24.9337 42.1207L21.9505 42.7905L21.3052 42.9354L18.009 39.5505C18.2089 38.1872 18.6481 36.8965 19.288 35.7269ZM19.867 47.6631C18.6709 45.9087 17.9495 43.8058 17.8903 41.541L20.2922 44.0075L19.867 47.6631ZM21.1667 49.2457L21.7363 44.3491L25.1735 43.5773L25.3412 43.5397L28.5728 45.8877V49.3565L25.0823 51.8582C23.5992 51.264 22.2686 50.3676 21.1667 49.2457ZM29.3219 52.6733C28.4738 52.6734 27.6472 52.5797 26.8513 52.4037L29.3531 50.6107L32.1467 52.3199C31.2429 52.5504 30.2966 52.6733 29.3219 52.6733ZM33.9486 51.6945L30.0709 49.322V45.8877L32.45 44.1592L33.3026 43.5397L33.535 43.5919L36.9304 44.3543L37.6791 49.0347C36.6337 50.1544 35.3667 51.0646 33.9486 51.6945ZM38.9183 47.4504L38.366 43.9977L40.7517 41.591C40.6858 43.7461 40.021 45.7528 38.9183 47.4504ZM40.6284 38.5298C40.5189 38.7194 40.2755 38.7847 40.0857 38.6751L39.9322 38.5866C39.7427 38.477 39.6775 38.2336 39.7869 38.0439L40.074 37.5464L40.9155 38.0322L40.6284 38.5298ZM42.3397 37.1215L39.0731 35.2355C38.6901 34.3124 37.9905 33.5253 37.0782 32.9986L35.0403 31.822C34.4496 31.4809 33.7718 31.3634 33.1318 31.4912C32.8496 31.5479 32.5305 31.4892 32.2561 31.3307L29.9145 29.9788C29.9144 29.9788 29.9146 29.9788 29.9145 29.9788L29.1866 29.5586L23.6105 26.3392C23.6102 26.339 23.6107 26.3393 23.6105 26.3392L21.4921 25.116C21.4919 25.116 21.4923 25.1161 21.4921 25.116L21.0245 24.8462C20.1126 24.3196 19.6985 23.3022 20.045 22.5115C20.3564 23.1126 20.8509 23.6466 21.5005 24.0217L32.7323 30.5063C33.3208 30.8461 33.9962 30.963 34.6337 30.8358C34.918 30.7786 35.2398 30.8378 35.5165 30.9975L37.5544 32.1742C38.2343 32.5667 38.7582 33.1876 38.9918 33.8776C39.0493 34.0472 39.1664 34.19 39.3214 34.2795L42.8158 36.297C43.394 36.6309 44.034 36.8036 44.6695 36.8036C44.7154 36.8036 44.7612 36.8021 44.8069 36.8003C44.3091 37.4894 43.2373 37.6398 42.3397 37.1215ZM46.0969 34.581C45.8853 34.9476 45.5155 35.2 45.0558 35.2919C44.5607 35.3909 44.0269 35.2945 43.5526 35.0206L40.286 33.1346C39.903 32.2115 39.2035 31.4244 38.2912 30.8977L36.2531 29.7211C35.6623 29.38 34.9846 29.2627 34.3447 29.3904C34.0626 29.4471 33.7434 29.3883 33.469 29.2299L22.2372 22.7453C21.2704 22.1871 20.8627 21.0768 21.3284 20.2703C21.6757 19.6687 22.4176 19.3632 23.2196 19.4909C24.3188 19.6928 25.5636 19.9273 26.8568 20.1772L27.8357 23.8304C27.91 24.1078 28.1385 24.3167 28.4214 24.3658L31.0767 24.8267C31.1187 24.8341 31.1609 24.8376 31.2027 24.8376C31.4077 24.8376 31.6059 24.7519 31.7467 24.5978C31.9164 24.4121 31.9796 24.1528 31.9145 23.9099L31.1427 21.0293C31.5058 21.1038 31.8646 21.1781 32.2163 21.2517L33.165 24.7926C33.2393 25.07 33.4679 25.2789 33.7508 25.328L36.4061 25.7889C36.4481 25.7963 36.4902 25.7998 36.5321 25.7998C36.7371 25.7998 36.9352 25.7141 37.0761 25.56C37.2458 25.3743 37.309 25.115 37.2439 24.8721L36.5323 22.2163C37.5239 22.4621 38.2145 22.6647 38.4413 22.7956L38.7764 22.989L38.4175 23.6106C37.725 24.81 38.1373 26.3495 39.3366 27.0423L42.7891 29.0367L41.7338 29.3194C41.3407 29.4248 41.1074 29.8289 41.2127 30.222C41.3009 30.5512 41.5986 30.7685 41.924 30.7685C41.9871 30.7685 42.0514 30.7603 42.1152 30.7431L45.6366 29.7996C45.8408 29.7721 46.0426 29.7275 46.2389 29.6633L46.6692 29.5228L47.4961 29.3012C47.9497 29.2564 48.4383 29.3629 48.865 29.6093C48.9029 29.6312 48.9219 29.6569 48.9304 29.6731L46.0969 34.581Z" fill="white"/>
<path d="M53.9274 19.6935C53.7903 19.5564 53.6002 19.4775 53.4063 19.4775C53.2125 19.4775 53.0224 19.5564 52.8853 19.6935C52.7482 19.8305 52.6694 20.0206 52.6694 20.2145C52.6694 20.4091 52.7482 20.5984 52.8853 20.7355C53.0224 20.8726 53.2125 20.9514 53.4063 20.9514C53.6001 20.9514 53.7903 20.8726 53.9274 20.7355C54.0645 20.5984 54.1433 20.4084 54.1433 20.2145C54.1433 20.0207 54.0644 19.8305 53.9274 19.6935Z" fill="white"/>
</g>
</g>
</g>
</g>
<defs>
<clipPath id="clip0_3_856">
<rect width="67" height="67" fill="white"/>
</clipPath>
<clipPath id="clip1_3_856">
<rect width="67" height="67" fill="white"/>
</clipPath>
</defs>
</svg>
