<svg width="72" height="72" viewBox="0 0 72 72" fill="none" xmlns="http://www.w3.org/2000/svg">
<path d="M13.9091 11.4546V26.1819H28.6364" stroke="#0078FF" stroke-width="3.27273" stroke-linecap="round" stroke-linejoin="round"/>
<path d="M58.0909 35.9999C58.087 31.7372 56.8499 27.5666 54.5287 23.9912C52.2075 20.4159 48.9016 17.5884 45.0093 15.8499C41.1172 14.1114 36.8052 13.5361 32.5934 14.1935C28.3816 14.8508 24.45 16.7128 21.2727 19.5545L14.7273 25.3636M58.0909 60.5454V45.8181H43.3636" stroke="#0078FF" stroke-width="4.09091" stroke-linecap="round" stroke-linejoin="round"/>
<path d="M13.9091 36C13.913 40.2627 15.1501 44.4333 17.4713 48.0088C19.7925 51.5842 23.0984 54.4117 26.9907 56.1502C30.8828 57.8887 35.1947 58.4638 39.4066 57.8065C43.6184 57.1492 47.5499 55.2873 50.7273 52.4455L58.0909 45.8182" stroke="#0078FF" stroke-width="4.09091" stroke-linecap="round" stroke-linejoin="round"/>
</svg>
