<svg width="41" height="41" viewBox="0 0 41 41" fill="none" xmlns="http://www.w3.org/2000/svg">
<path d="M15.0417 23.7556H20.4167" stroke="#034DA0" stroke-width="3" stroke-linecap="round"/>
<path d="M16.8334 20.1749V13.3666C16.8334 13.0337 16.8334 12.8672 16.8555 12.728C16.9769 11.9613 17.5782 11.3601 18.3449 11.2386C18.4841 11.2166 18.6505 11.2166 18.9834 11.2166H23.1042C25.578 11.2166 27.5834 13.222 27.5834 15.6958C27.5834 18.1695 25.578 20.1749 23.1042 20.1749H16.8334ZM16.8334 20.1749V29.1333M16.8334 20.1749H15.0417" stroke="#034DA0" stroke-width="3" stroke-linecap="round"/>
<path d="M11.4583 4.6545C14.0936 3.13006 17.1533 2.25757 20.4167 2.25757C30.3117 2.25757 38.3333 10.2792 38.3333 20.1743C38.3333 30.0693 30.3117 38.0909 20.4167 38.0909C10.5216 38.0909 2.5 30.0693 2.5 20.1743C2.5 16.9109 3.37249 13.8512 4.89693 11.2159" stroke="#034DA0" stroke-width="4" stroke-linecap="round"/>
</svg>
