<svg width="72" height="72" viewBox="0 0 72 72" fill="none" xmlns="http://www.w3.org/2000/svg">
<g clip-path="url(#clip0_12_214)">
<path d="M20.4614 69.6826H46.1542C62.3632 69.6826 69.75 57.7822 69.75 46.7326C69.6278 44.1402 68.9778 41.6 67.84 39.2676C66.7022 36.935 65.1004 34.8594 63.1326 33.1672C59.0852 29.3116 53.7432 27.1072 48.1544 26.9866C44.4214 27.1922 40.7998 28.3314 37.6212 30.2996C34.4426 32.2678 31.8088 35.0022 29.961 38.2522C28.701 35.7436 26.8784 32.1052 25.425 29.1802H30.1904C31.6008 29.0918 32.9406 28.5314 33.9944 27.5896C35.048 26.6478 35.7544 25.379 36 23.9872C36.8824 23.2496 37.5846 22.32 38.0528 21.2694C38.5212 20.2188 38.7432 19.0752 38.7022 17.9258C38.7022 9.68626 29.484 5.55076 24.3606 5.55076C17.3632 5.3865 15.3337 10.467 13.5157 15.012L13.4369 15.2145C12.3052 18.1215 2.38491 43.884 2.38491 51.7072C2.36559 56.486 4.22403 61.0812 7.55991 64.503C9.24783 66.1944 11.2618 67.5252 13.4795 68.4148C15.6972 69.3042 18.0726 69.734 20.4614 69.678V69.6826ZM17.6287 16.8683C19.5929 11.952 20.682 10.053 24.1672 10.053H24.3202C27.675 10.053 34.2 12.8318 34.2 17.928C34.2606 18.441 34.182 18.9585 33.9704 19.431V19.4333C33.6856 19.051 33.338 18.7201 32.9422 18.4545C32.6042 18.2174 32.205 18.083 31.7924 18.0675H30.5976C29.4322 16.5983 25.8502 13.9905 23.0624 14.481L25.9806 18.1913H30.15L30.753 19.629C31.5 21.4066 31.2412 22.2908 31.0004 22.6778C30.8996 22.8404 30.7626 22.9776 30.6004 23.079C30.4382 23.1804 30.2548 23.2434 30.0644 23.2628H15.9299L17.3204 25.074C17.9302 25.8682 18.7402 26.487 19.5344 26.9572C19.5389 27.2956 19.6196 27.6286 19.7707 27.9316L20.394 29.1802V29.1848C21.7146 31.8286 24.7702 37.953 26.415 41.22C26.3586 41.301 26.3024 41.3842 26.2506 41.4676L19.7414 52.0448C19.4287 52.5532 19.3308 53.165 19.4692 53.7456C19.6076 54.3262 19.971 54.828 20.4794 55.1408C20.9878 55.4534 21.5996 55.5514 22.1802 55.413C22.7608 55.2746 23.2628 54.9112 23.5754 54.4028L29.4254 44.892C29.628 44.9392 29.8304 44.9662 30.0396 44.9686C30.267 44.9596 30.492 44.9236 30.7102 44.8628L36.7514 54.8146C37.0612 55.3248 37.5608 55.691 38.1406 55.8328C38.7204 55.9746 39.3328 55.8802 39.843 55.5706C40.3532 55.2608 40.7194 54.761 40.8612 54.1814C41.003 53.6016 40.9086 52.9892 40.599 52.479L33.93 41.4922C33.834 41.3354 33.7288 41.1844 33.615 41.04C35.009 38.3294 37.08 36.025 39.6272 34.3508C42.1742 32.6764 45.111 31.689 48.1522 31.4842C52.6072 31.599 56.8596 33.3742 60.0772 36.4612C61.5802 37.7424 62.812 39.3108 63.7004 41.0746C64.5888 42.8386 65.1156 44.7622 65.25 46.7326C65.2476 55.917 59.3414 65.1826 46.1542 65.1826H20.4614C18.6707 65.2338 16.8882 64.9214 15.2217 64.2638C13.5552 63.6064 12.0395 62.6176 10.7662 61.3576C8.26288 58.788 6.87043 55.3372 6.88941 51.75C6.88941 45.81 14.6474 24.5386 17.6287 16.8683Z" fill="#0078FF"/>
</g>
<defs>
<clipPath id="clip0_12_214">
<rect width="72" height="72" fill="white"/>
</clipPath>
</defs>
</svg>
