<svg width="73" height="73" viewBox="0 0 73 73" fill="none" xmlns="http://www.w3.org/2000/svg">
<g clip-path="url(#clip0_1_201)">
<path d="M51.1933 32.7242C51.1933 30.8091 50.8161 28.9128 50.0832 27.1434C49.3504 25.3741 48.2762 23.7665 46.922 22.4123C45.5678 21.0581 43.9601 19.9839 42.1908 19.251C40.4215 18.5181 38.5251 18.1409 36.61 18.1409C34.6949 18.1409 32.7985 18.5181 31.0292 19.251C29.2599 19.9839 27.6522 21.0581 26.298 22.4123C24.9438 23.7665 23.8696 25.3741 23.1368 27.1434C22.4039 28.9128 22.0267 30.8091 22.0267 32.7242M44.9433 40.0159V44.1826C44.9433 45.1513 44.9433 45.6347 45.0225 46.0367C45.1831 46.8454 45.5801 47.5882 46.163 48.1712C46.746 48.7542 47.4888 49.1511 48.2975 49.3117C48.6996 49.3909 49.1829 49.3909 50.1517 49.3909C51.1204 49.3909 51.6037 49.3909 52.0058 49.3117C52.8141 49.1507 53.5565 48.7537 54.1391 48.1707C54.7216 47.5878 55.1183 46.8451 55.2788 46.0367C55.36 45.6347 55.36 45.1513 55.36 44.1826V40.0159C55.36 39.0472 55.36 38.5638 55.2788 38.1617C55.1184 37.3536 54.7221 36.6112 54.1399 36.0283C53.5577 35.4454 52.8158 35.0481 52.0079 34.8867C51.6017 34.8076 51.1183 34.8076 50.1517 34.8076C49.185 34.8076 48.6996 34.8076 48.2975 34.8867C47.4891 35.0472 46.7465 35.4439 46.1635 36.0264C45.5806 36.609 45.1835 37.3514 45.0225 38.1597C44.9433 38.5638 44.9433 39.0472 44.9433 40.0159ZM28.2767 40.0159V44.1826C28.2767 45.1513 28.2767 45.6347 28.1954 46.0367C28.0351 46.8448 27.6388 47.5873 27.0566 48.1702C26.4744 48.7531 25.7325 49.1504 24.9246 49.3117C24.5183 49.3909 24.035 49.3909 23.0683 49.3909C22.1017 49.3909 21.6163 49.3909 21.2142 49.3117C20.4055 49.1511 19.6627 48.7542 19.0797 48.1712C18.4967 47.5882 18.0998 46.8454 17.9392 46.0367C17.86 45.6347 17.86 45.1513 17.86 44.1826V40.0159C17.86 39.0472 17.86 38.5638 17.9392 38.1617C18.0998 37.3531 18.4967 36.6103 19.0797 36.0273C19.6627 35.4443 20.4055 35.0474 21.2142 34.8867C21.6163 34.8076 22.0996 34.8076 23.0683 34.8076C24.0371 34.8076 24.5204 34.8076 24.9225 34.8867C25.7305 35.0476 26.4727 35.4444 27.0552 36.0269C27.6378 36.6095 28.0346 37.3517 28.1954 38.1597C28.2767 38.5638 28.2767 39.0472 28.2767 40.0159Z" stroke="white" stroke-width="3" stroke-linecap="round" stroke-linejoin="round"/>
<path d="M23.11 49.3076C23.11 53.1736 26.244 56.3076 30.11 56.3076H34.11" stroke="white" stroke-width="3"/>
<path d="M37.11 52.8076H36.11C34.177 52.8076 32.61 54.3746 32.61 56.3076C32.61 58.2406 34.177 59.8076 36.11 59.8076H37.11C39.043 59.8076 40.61 58.2406 40.61 56.3076C40.61 54.3746 39.043 52.8076 37.11 52.8076Z" fill="white"/>
</g>
<defs>
<clipPath id="clip0_1_201">
<rect width="72" height="72" fill="white" transform="translate(0.609985 0.807617)"/>
</clipPath>
</defs>
</svg>
